<?xml version="1.0" standalone="no"?>
<!DOCTYPE svg PUBLIC "-//W3C//DTD SVG 20010904//EN"
 "http://www.w3.org/TR/2001/REC-SVG-20010904/DTD/svg10.dtd">
<svg version="1.0" xmlns="http://www.w3.org/2000/svg"
 width="512.000000pt" height="512.000000pt" viewBox="0 0 512.000000 512.000000"
 preserveAspectRatio="xMidYMid meet">
<metadata>
Created by potrace 1.11, written by Peter Selinger 2001-2013
</metadata>
<g transform="translate(0.000000,512.000000) scale(0.100000,-0.100000)"
fill="#000000" stroke="none">
<path d="M3394 5020 c-43 -19 -85 -62 -179 -186 -33 -44 -64 -84 -70 -90 -5
-7 -27 -34 -47 -60 -42 -55 -292 -376 -331 -426 -14 -18 -68 -87 -119 -153
-51 -66 -105 -136 -120 -155 -16 -19 -89 -114 -163 -210 -75 -96 -146 -188
-159 -205 -76 -96 -398 -510 -441 -566 -94 -124 -359 -464 -365 -469 -3 -3
-32 -41 -65 -85 -33 -44 -62 -82 -65 -85 -4 -3 -85 -106 -180 -230 -135 -174
-177 -235 -186 -272 -28 -104 21 -205 120 -249 43 -19 66 -20 296 -20 138 1
250 -1 250 -2 0 -2 -110 -222 -245 -490 -219 -435 -245 -492 -245 -535 1 -26
7 -63 14 -82 22 -64 52 -90 225 -195 87 -53 177 -110 181 -115 3 -4 31 -19 63
-34 84 -42 164 -32 236 29 13 11 145 179 295 373 149 195 408 533 576 751 358
466 931 1213 1113 1449 70 92 133 174 140 182 7 8 23 31 37 50 13 19 27 37 30
40 18 15 200 260 215 290 43 84 8 211 -73 265 -54 35 -99 41 -349 40 -123 0
-223 1 -223 2 0 5 59 122 115 228 31 61 81 155 110 210 29 55 81 154 115 220
143 271 160 309 160 350 0 61 -17 108 -53 148 -31 35 -316 221 -427 279 -63
33 -121 35 -186 8z"/>
</g>
</svg>
